<svg width="20" height="20" viewBox="0 0 20 20" fill="none" xmlns="http://www.w3.org/2000/svg">
<path d="M20 10C20 15.5228 15.5228 20 10 20C4.47715 20 0 15.5228 0 10C0 4.47715 4.47715 0 10 0C15.5228 0 20 4.47715 20 10Z" fill="#2979F2"/>
<path d="M10.0001 17.9224C10.0001 18.1295 10.1681 18.2983 10.375 18.2889C12.4392 18.1956 14.3997 17.3346 15.8672 15.8672C17.4232 14.3111 18.2974 12.2007 18.2974 10.0001C18.2974 7.79948 17.4232 5.68902 15.8672 4.13297C14.3997 2.66551 12.4392 1.80449 10.375 1.7112C10.1681 1.70185 10.0001 1.87063 10.0001 2.07774L10.0001 10.0001L10.0001 17.9224Z" fill="white"/>
</svg>
