<svg width="22" height="24" viewBox="0 0 22 24" fill="none" xmlns="http://www.w3.org/2000/svg">
<path d="M8.52612 2.3722C9.6687 0.5426 12.333 0.542599 13.4756 2.3722L14.2558 3.62145C14.7698 4.44461 15.6595 4.95829 16.6294 4.9919L18.1014 5.04291C20.2572 5.11762 21.5893 7.42498 20.5761 9.32929L19.8843 10.6295C19.4285 11.4863 19.4285 12.5137 19.8843 13.3705L20.5761 14.6707C21.5893 16.575 20.2572 18.8824 18.1014 18.9571L16.6294 19.0081C15.6595 19.0417 14.7698 19.5554 14.2558 20.3785L13.4756 21.6278C12.333 23.4574 9.6687 23.4574 8.52612 21.6278L7.74596 20.3785C7.2319 19.5554 6.34218 19.0417 5.37227 19.0081L3.90031 18.9571C1.74454 18.8824 0.412381 16.575 1.42557 14.6707L2.11737 13.3705C2.57322 12.5137 2.57322 11.4863 2.11737 10.6295L1.42557 9.32929C0.412382 7.42498 1.74454 5.11762 3.90031 5.04291L5.37227 4.9919C6.34218 4.95829 7.2319 4.44461 7.74596 3.62145L8.52612 2.3722Z" stroke="#9EA2BE" stroke-width="1.5" stroke-linecap="round" stroke-linejoin="round"/>
<circle cx="11.001" cy="12" r="3.5" stroke="#D6D8DF" stroke-width="1.5" stroke-linecap="round" stroke-linejoin="round"/>
</svg>
