<svg width="24" height="24" viewBox="0 0 24 24" fill="none" xmlns="http://www.w3.org/2000/svg">
<path d="M20.9495 14.7426V18.1191C20.9495 18.8831 20.646 19.6159 20.1057 20.1562C19.5654 20.6965 18.8327 21 18.0686 21H4.71254C3.94847 21 3.21569 20.6965 2.67541 20.1562C2.13513 19.6159 1.8316 18.8831 1.8316 18.1191V5.88082C1.8316 5.11675 2.13513 4.38397 2.67541 3.84369C3.21569 3.3034 3.94847 2.99988 4.71254 2.99988H18.0686C18.8327 2.99988 19.5654 3.3034 20.1057 3.84369C20.646 4.38397 20.9495 5.11675 20.9495 5.88082V9.25728" stroke="#9EA2BE" stroke-width="1.5" stroke-linecap="round" stroke-linejoin="round"/>
<path d="M15.3033 9.25735H21.0652C21.3709 9.25735 21.664 9.37876 21.8801 9.59487C22.0962 9.81098 22.2176 10.1041 22.2176 10.4097V13.5903C22.2176 13.8959 22.0962 14.189 21.8801 14.4051C21.664 14.6212 21.3709 14.7427 21.0652 14.7427H15.3033C14.6921 14.7427 14.1059 14.4998 13.6736 14.0676C13.2414 13.6354 12.9986 13.0492 12.9986 12.4379V11.5621C12.9986 11.2594 13.0582 10.9597 13.174 10.6801C13.2899 10.4005 13.4596 10.1464 13.6736 9.93239C13.8877 9.71838 14.1417 9.54861 14.4214 9.43279C14.701 9.31696 15.0007 9.25735 15.3033 9.25735V9.25735Z" stroke="#9EA2BE" stroke-width="1.5" stroke-linecap="round" stroke-linejoin="round"/>
<path d="M16.0979 12H16.9507" stroke="#9EA2BE" stroke-width="1.5" stroke-linecap="round" stroke-linejoin="round"/>
</svg>
